<svg xmlns="http://www.w3.org/2000/svg" version="1.1">
<rect x="0" y="0" width="100" height="20" style="fill:white;stroke:black;stroke-width:2"/>
<text x="50" y="15" text-anchor="middle" style="font-family: Arial, Helvetica, sans-serif">
(x602,1)</text>
<line x1="50" y1="20" x2="50" y2="400" style="stroke:black;stroke-width:2" />
<rect x="25" y="400" width="50" height="10" style="fill:black;stroke:black;stroke-width:2"/>
<rect x="150" y="0" width="100" height="20" style="fill:white;stroke:black;stroke-width:2"/>
<text x="200" y="15" text-anchor="middle" style="font-family: Arial, Helvetica, sans-serif">
i</text>
<line x1="200" y1="20" x2="200" y2="400" style="stroke:black;stroke-width:2" />
<rect x="175" y="400" width="50" height="10" style="fill:black;stroke:black;stroke-width:2"/>
<rect x="300" y="0" width="100" height="20" style="fill:white;stroke:black;stroke-width:2"/>
<text x="350" y="15" text-anchor="middle" style="font-family: Arial, Helvetica, sans-serif">
(x601,1)</text>
<line x1="350" y1="20" x2="350" y2="400" style="stroke:black;stroke-width:2" />
<rect x="325" y="400" width="50" height="10" style="fill:black;stroke:black;stroke-width:2"/>
<line x1="50.0" y1="50" x2="200.0" y2="50" style="stroke:black;stroke-width:2" />
<line x1="190.0" y1="40" x2="200.0" y2="50" style="stroke:black;stroke-width:2" />
<line x1="190.0" y1="60" x2="200.0" y2="50" style="stroke:black;stroke-width:2" />
<text x="125.0" y="45" text-anchor="middle" style="font-family: Arial, Helvetica, sans-serif"> {NA(1),x602}_(pk(i))</text>
<line x1="200.0" y1="100" x2="350.0" y2="100" style="stroke:black;stroke-width:2" />
<line x1="340.0" y1="90" x2="350.0" y2="100" style="stroke:black;stroke-width:2" />
<line x1="340.0" y1="110" x2="350.0" y2="100" style="stroke:black;stroke-width:2" />
<text x="275.0" y="95" text-anchor="middle" style="font-family: Arial, Helvetica, sans-serif"> {NA(1),x602}_(pk(x601))</text>
<line x1="200.0" y1="150" x2="350.0" y2="150" style="stroke:black;stroke-width:2" />
<line x1="210.0" y1="140" x2="200.0" y2="150" style="stroke:black;stroke-width:2" />
<line x1="210.0" y1="160" x2="200.0" y2="150" style="stroke:black;stroke-width:2" />
<text x="275.0" y="145" text-anchor="middle" style="font-family: Arial, Helvetica, sans-serif"> {NA(1),NB(2)}_(pk(x602))</text>
<line x1="50.0" y1="200" x2="200.0" y2="200" style="stroke:black;stroke-width:2" />
<line x1="60.0" y1="190" x2="50.0" y2="200" style="stroke:black;stroke-width:2" />
<line x1="60.0" y1="210" x2="50.0" y2="200" style="stroke:black;stroke-width:2" />
<text x="125.0" y="195" text-anchor="middle" style="font-family: Arial, Helvetica, sans-serif"> {NA(1),NB(2)}_(pk(x602))</text>
<line x1="50.0" y1="250" x2="200.0" y2="250" style="stroke:black;stroke-width:2" />
<line x1="190.0" y1="240" x2="200.0" y2="250" style="stroke:black;stroke-width:2" />
<line x1="190.0" y1="260" x2="200.0" y2="250" style="stroke:black;stroke-width:2" />
<text x="125.0" y="245" text-anchor="middle" style="font-family: Arial, Helvetica, sans-serif"> {NB(2)}_(pk(i))</text>
<line x1="200.0" y1="300" x2="350.0" y2="300" style="stroke:black;stroke-width:2" />
<line x1="340.0" y1="290" x2="350.0" y2="300" style="stroke:black;stroke-width:2" />
<line x1="340.0" y1="310" x2="350.0" y2="300" style="stroke:black;stroke-width:2" />
<text x="275.0" y="295" text-anchor="middle" style="font-family: Arial, Helvetica, sans-serif"> {NB(2)}_(pk(x601))</text>
</svg>